<?xml version="1.0" encoding="UTF-8"?>
<svg id="Layer_1" data-name="Layer 1" xmlns="http://www.w3.org/2000/svg" viewBox="0 0 2000 2000">
  <defs>
    <style>
      .cls-1 {
        fill: #fff;
      }

      .cls-2 {
        fill: none;
      }

      .cls-2, .cls-3 {
        stroke: #231f20;
        stroke-miterlimit: 10;
        stroke-width: 16px;
      }

      .cls-3 {
        fill: #ed1c24;
      }
    </style>
  </defs>
  <rect class="cls-1" x="-139.57" y="-87.08" width="2265.97" height="2345.47"/>
  <path class="cls-3" d="M870.53,207.19v35.83s-59.88,31.22-72.12,110.79-8.26,93.96-8.26,93.96l-9.49,2.14s-2.75-4.9-17.14-4.28-15.91,5.2-15.91,7.04c0,0-9.72,0-9.97,5.63s0,7.16,0,7.16c0,0-6.39-.77-7.16,7.8,0,0-19.05,9.34-18.93,23.53s24.16,26.94,34.09,30.42c0,0-.99,7.45.74,8.69s8.19,17.87,17.13,16.63,13.65-2.73,16.63-6.45v17.13l6.7,1.99s-.54,7.7,4.2,11.17c0,0,.85,133.46,2.43,147.67,0,0-54.86,3.16-58.41,3.16s-40.65,13.02-46.18,30.78h-8.29s-13.42,25.65-13.42,31.18l-7.1,10.26h-13.42s-11.84,14.6-11.84,32.36,16.97,30.39,16.97,30.39h5.53l-.79,19.34,6.71,1.97s6.71,25.26,14.6,35.52l-4.74,4.74s16.58,17.37,27.23,17.37,22.89,2.76,22.89,2.76c0,0,34.56,75.41,74.91,81.62,0,0-1.33,260.08,1.71,278.3,0,0-25,10.76-23.59,25.95s15.89,29.66,15.89,29.66c0,0,2.05,232.09,5.26,240.9h-8.17s-3.01-12.27-22.42-10.6-16.73,10.6-16.73,10.6c0,0-12.72,3.12-12.72,8.81s-.33,10.04-.33,10.04c0,0-49.53,23.43-47.86,48.19s6.02,75.97,6.02,75.97c0,0,83.4,99.64,305.19,96.61s292.83-83.14,300.39-93.72v-88.51s-37.3-45.76-104.9-55.33c0,0,0-237.49-1.2-248.85,0,0,16.15-11.96,13.16-32.9s-23.33-25.12-23.33-25.12c0,0-1.69-265.15-8.86-278.85l91.89-3.92s23.3-10.35,23.3-20.71,9.94-24.59,9.94-24.59c0,0,17.24-11.65,18.54-19.41,0,0,24.59-5.18,29.77-20.71,0,0,.79-41.64-3.99-45.83l-14.95-5.38s-6.58-19.74-11.96-26.92l2.99-9.57s-7.78-17.95-11.37-22.13c0,0-21.53-23.33-35.89-26.92,0,0-84.94-20.34-91.52-26.92,0,0-8.54-210.49-4.04-223.97l7.2,6.36s2.06,19.55,21.95,18.18,17.15-18.52,17.15-18.52l.1-16.7s33.9-8.47,35.78-31.07-77.69-55.56-82.86-55.56c0,0,1.41-161.08-76.84-207.92l-2.98-31.33-227.27,4.12Z"/>
  <path class="cls-3" d="M979.21,224.06c50.57-1.63,114.92-5,118.67-18.74s-68.08-19.99-108.05-19.99-133.66,13.74-119.29,21.86,68.78,18.15,108.68,16.86Z"/>
  <path class="cls-3" d="M1026.9,141.99l.91,59.73s-2.14,6.43-7.59,6.43-47.68,1.81-47.68,1.81c0,0-31.71-7.59-33.01-8.58s.07-53.1.07-53.1"/>
  <path class="cls-3" d="M982.11,137c17.74-.54,40.64-.75,44.02,3.39s-5.27,10.54-10.54,10.16-42.14,1.88-42.14,1.88c0,0-32.36-1.13-33.86-4.14s20.72-10.63,42.52-11.29Z"/>
  <path class="cls-2" d="M711.54,496.78s56.31,52.97,288.46,47.25,260.49-46.15,260.49-46.15"/>
  <path class="cls-2" d="M931.46,263.49s-26.3,67.72-26.3,110.45,6.46,82.18,33.8,80.87,40.49-60.48,39.83-127.54,4.59-63.77,4.59-63.77"/>
  <path class="cls-2" d="M1020.21,263.46s17.09,62.48,23.01,101.27,17.09,92.76,44.05,90.1,22.82-82.21,10.75-119.03-38.37-75.61-38.37-75.61"/>
  <path class="cls-2" d="M869.05,251.65s-30.95,39.45-42.13,79.55-26.96,105.85-4.6,107.82,20.38-69.69,41.42-117.68,32.87-61.14,32.87-61.14"/>
  <path class="cls-2" d="M1101.73,249.02s42.73,40.59,57.2,88.1,13.15,88.1,9.2,90.07-15.77-59.83-31.88-89.08-43.07-81.85-43.07-81.85"/>
  <path class="cls-2" d="M772.27,725.22s-62.21,33.25-65.41,116.87,16.35,101.76,16.35,101.76"/>
  <path class="cls-2" d="M700.83,743.32s-33.15,46.04-34.98,94.51,21.87,98.22,21.87,98.22"/>
  <path class="cls-2" d="M1226.37,778.39s-90.02,27.33-81.54,120.06,35.56,117.96,35.56,117.96"/>
  <path class="cls-2" d="M799.83,1303.76s-2.18,69.94,196.44,62.64,189.05-62.64,189.05-62.64"/>
  <path class="cls-2" d="M1090.98,1695.2s.86-138.94,0-184.4-14.58-96.06-54.89-90.91-51.46,56.61-51.46,95.2,7.33,191.26,7.33,191.26"/>
  <path class="cls-2" d="M944.32,1702.06v-130.36c0-64.32,1.72-156.95-50.6-156.95s-40.31,98.63-38.59,159.52-2.39,116.64-2.39,116.64"/>
  <path class="cls-2" d="M819.96,1672.9v-173.25c0-44.6-5.54-120.07-27.64-120.93"/>
  <path class="cls-2" d="M1131.4,1692.78s-4.63-147.63-3.47-178.89,6.37-116.95,43.42-122.74,21.47,56.16,24.34,86.26"/>
  <path class="cls-2" d="M1300.75,1664.48s-44.47,102.14-316.12,92.15-295.49-89.31-295.49-89.31"/>
  <path class="cls-2" d="M738.41,1606.29s-1.53,11.52,21.93,10.16,36.03-8.16,36.03-8.16"/>
  <polygon class="cls-2" points="733.04 1649.75 724.1 1658.05 746.03 1658.9 760.51 1652.09 750.93 1645.7 733.04 1649.75"/>
  <path class="cls-2" d="M722.4,1660.6s-16.61,4.68-11.28,10.65,38.96,6.39,52.16,0,10.01-14.26,1.28-16.61"/>
  <polygon class="cls-2" points="849.41 1702.06 862.24 1708.27 884.02 1705.16 885.23 1698.1 878.69 1693.02 862.72 1693.02 849.41 1702.06"/>
  <path class="cls-2" d="M844.09,1704.64s-24.93,22.51,23.23,19.36,22.75-20.81,22.75-20.81"/>
  <polygon class="cls-2" points="1051.25 1705.06 1056.05 1710.9 1079.19 1712.11 1086.81 1706.35 1081.45 1699.41 1058.31 1699.41 1051.25 1705.06"/>
  <path class="cls-2" d="M1051.25,1709.57s-35.84,20.6,17.78,21.45,22.33-21.45,22.33-21.45"/>
  <polygon class="cls-2" points="791.42 906.81 809.81 943.85 787.74 968.6 753.9 951.68 753.9 912.69 791.42 906.81"/>
  <path class="cls-2" d="M747.28,923.73s-2.21-49.29,49.29-47.82,60.32,44.87,56.64,71.35-27.73,46.66-71.35,35.31"/>
  <path class="cls-2" d="M742.86,839.69s48.55-80,126.53-52.05,115.49,111.6,103.72,156.21-44.87,104.2-119.17,100.52"/>
</svg>