<?xml version="1.0" encoding="UTF-8"?>
<svg id="Layer_1" data-name="Layer 1" xmlns="http://www.w3.org/2000/svg" viewBox="0 0 624.94 657.8">
  <defs>
    <style>
      .cls-1 {
        fill: none;
        stroke: #231f20;
        stroke-miterlimit: 10;
        stroke-width: 13px;
      }
    </style>
  </defs>
  <path class="cls-1" d="m616.57,55.74s-66.6,152.34-66.6,319.54-237.51,262.34-237.51,282.52c0-20.18-237.5-115.31-237.5-282.52S8.37,55.74,8.37,55.74L98.82,7.74c93.07,74.16,213.65,0,213.65,0,0,0,120.58,74.16,213.65,0l90.45,48Z"/>
  <path class="cls-1" d="m574.71,93.87s-57.43,131.37-57.43,275.55-204.81,226.23-204.81,243.63c0-17.4-204.81-99.44-204.81-243.63S50.23,93.87,50.23,93.87l78-41.39c80.26,63.95,184.24,0,184.24,0,0,0,103.98,63.95,184.24,0l78,41.39Z"/>
</svg>